<svg xmlns="http://www.w3.org/2000/svg" viewBox="0 0 900 460"><defs><linearGradient id="bg" x2="1" y2="1"><stop stop-color="#102b45"/><stop offset="1" stop-color="#11122c"/></linearGradient><linearGradient id="a" x2="1" y2="1"><stop stop-color="#75f7d4"/><stop offset="1" stop-color="#74a8ff"/></linearGradient></defs><rect width="900" height="460" fill="url(#bg)" rx="26"/><g fill="none" stroke="#80bcde" stroke-opacity=".12"><path d="M0 0V460M0 0H900"/><path d="M100 0V460M0 55H900"/><path d="M200 0V460M0 110H900"/><path d="M300 0V460M0 165H900"/><path d="M400 0V460M0 220H900"/><path d="M500 0V460M0 275H900"/><path d="M600 0V460M0 330H900"/><path d="M700 0V460M0 385H900"/><path d="M800 0V460M0 440H900"/><path d="M900 0V460M0 495H900"/></g><g font-family="Arial,sans-serif" fill="#effcff"><text x="32" y="44" font-size="23" font-weight="900" letter-spacing="4">MECHANICAL LAB</text></g><g transform="translate(348 230)"><circle r="108" fill="#74dabf"/><circle r="41.04" fill="#142943"/><g stroke="#f5f7ff" stroke-width="15"><path d="M98 0L130 0"/><path d="M69.29646455628166 69.29646455628165L91.92388155425118 91.92388155425117"/><path d="M6.000769315822031e-15 98L7.960204194457796e-15 130"/><path d="M-69.29646455628165 69.29646455628166L-91.92388155425117 91.92388155425118"/><path d="M-98 1.2001538631644062e-14L-130 1.592040838891559e-14"/><path d="M-69.29646455628168 -69.29646455628165L-91.9238815542512 -91.92388155425117"/><path d="M-1.8002307947466092e-14 -98L-2.3880612583373385e-14 -130"/><path d="M69.29646455628163 -69.29646455628168L91.92388155425115 -91.9238815542512"/></g></g><g transform="translate(570 266)"><circle r="73" fill="#74dabf"/><circle r="27.740000000000002" fill="#142943"/><g stroke="#f5f7ff" stroke-width="15"><path d="M63 0L95 0"/><path d="M44.5477272147525 44.54772721475249L67.17514421272202 67.175144212722"/><path d="M3.857637417314163e-15 63L5.8170722959499274e-15 95"/><path d="M-44.54772721475249 44.5477272147525L-67.175144212722 67.17514421272202"/><path d="M-63 7.715274834628325e-15L-95 1.1634144591899855e-14"/><path d="M-44.547727214752506 -44.54772721475249L-67.17514421272203 -67.175144212722"/><path d="M-1.1572912251942487e-14 -63L-1.745121688784978e-14 -95"/><path d="M44.547727214752484 -44.547727214752506L67.175144212722 -67.17514421272203"/></g></g></svg>