<svg xmlns="http://www.w3.org/2000/svg" viewBox="0 0 900 460"><defs><linearGradient id="bg" x2="1" y2="1"><stop stop-color="#102b45"/><stop offset="1" stop-color="#11122c"/></linearGradient><linearGradient id="a" x2="1" y2="1"><stop stop-color="#75f7d4"/><stop offset="1" stop-color="#74a8ff"/></linearGradient></defs><rect width="900" height="460" fill="url(#bg)" rx="26"/><g fill="none" stroke="#80bcde" stroke-opacity=".12"><path d="M0 0V460M0 0H900"/><path d="M100 0V460M0 55H900"/><path d="M200 0V460M0 110H900"/><path d="M300 0V460M0 165H900"/><path d="M400 0V460M0 220H900"/><path d="M500 0V460M0 275H900"/><path d="M600 0V460M0 330H900"/><path d="M700 0V460M0 385H900"/><path d="M800 0V460M0 440H900"/><path d="M900 0V460M0 495H900"/></g><g font-family="Arial,sans-serif" fill="#effcff"><text x="32" y="44" font-size="23" font-weight="900" letter-spacing="4">GEOMETRY ZONE</text></g><path d="M230 355 L700 355 L230 115Z" fill="#55e6cc33" stroke="#77ffe0" stroke-width="7"/><path d="M230 324H261V355" fill="none" stroke="#ffc069" stroke-width="5"/><text x="445" y="404" font-family="Arial,sans-serif" font-size="37" font-weight="800" fill="#effcff" >4 cm</text><text x="94" y="248" font-family="Arial,sans-serif" font-size="37" font-weight="800" fill="#effcff" >3 cm</text><text x="466" y="201" font-family="Arial,sans-serif" font-size="37" font-weight="800" fill="#effcff" >5 cm</text></svg>